<svg width="221" height="248" viewBox="0 0 221 248" fill="none" xmlns="http://www.w3.org/2000/svg">
<path d="M34.7503 113.181C33.8646 110.789 32.6411 108.606 31.1399 106.685C26.1184 112.8 24.2044 121.24 26.794 129.321C27.6872 132.117 29.0458 134.637 30.7496 136.82C29.7889 134.218 29.2634 131.407 29.2634 128.477C29.2634 122.675 31.3276 117.345 34.7503 113.181Z" fill="#A7C4E7"/>
<path d="M16.6908 127.856C14.5966 127.632 12.54 127.789 10.611 128.267C11.0688 129.164 11.6018 130.017 12.2097 130.817C13.2005 130.57 14.2213 130.413 15.2722 130.338C21.3595 129.934 26.929 132.708 30.3367 137.238C27.7621 132.192 22.7632 128.507 16.6908 127.856Z" fill="#A7C4E7"/>
<path d="M40.3047 108.225C38.2105 109.585 36.334 111.26 34.7578 113.181C34.8779 113.51 34.998 113.846 35.103 114.19C37.6851 122.279 35.7711 130.712 30.7571 136.827C37.3999 132.521 41.7984 125.053 41.7984 116.568C41.7909 113.63 41.2655 110.826 40.3047 108.225Z" fill="#192559"/>
<g opacity="0.84">
<path d="M35.103 114.183C34.9979 113.846 34.8779 113.51 34.7578 113.174C31.3275 117.338 29.2709 122.668 29.2709 128.477C29.2709 131.407 29.7963 134.218 30.7571 136.82C35.7711 130.712 37.6851 122.272 35.103 114.183Z" fill="black"/>
</g>
<path d="M24.2494 137.657C19.2654 137.119 14.9945 134.525 12.2098 130.817C11.219 131.063 10.2657 131.392 9.34998 131.796C12.7577 136.319 18.3271 139.1 24.4145 138.696C26.5162 138.554 28.5128 138.053 30.3367 137.238C28.4002 137.724 26.351 137.881 24.2494 137.657Z" fill="#192559"/>
<g opacity="0.84">
<path d="M15.2723 130.346C14.2214 130.413 13.2006 130.577 12.2098 130.824C15.0021 134.532 19.2655 137.126 24.257 137.657C26.3511 137.881 28.4078 137.724 30.3368 137.246C26.9291 132.715 21.3596 129.942 15.2723 130.346Z" fill="black"/>
</g>
<path d="M41.4531 131.4C39.6967 134.689 36.9795 137.388 33.7745 139.107C32.1757 139.967 30.4568 140.588 28.7004 140.946C26.944 141.305 25.1426 141.402 23.3787 141.238C25.1501 141.238 26.914 140.976 28.5803 140.475C30.2541 139.975 31.8379 139.227 33.2716 138.27C36.1463 136.371 38.3981 133.642 39.6967 130.555C39.9069 130.062 40.4773 129.822 40.9727 130.032C41.4681 130.241 41.7083 130.809 41.4981 131.303C41.4831 131.332 41.4756 131.355 41.4606 131.385L41.4531 131.4Z" fill="#192559"/>
<path d="M63.0817 128.783H55.2775L53.7887 132.371H49.8026L57.2946 115.629H61.1367L68.6527 132.371H64.5705L63.0817 128.783ZM61.857 125.842L59.1916 119.432L56.5262 125.842H61.857ZM71.9064 130.673C70.5697 129.349 69.9013 127.46 69.9013 125.004V115.629H73.7914V124.861C73.7914 127.859 75.0401 129.357 77.5374 129.357C78.754 129.357 79.6825 128.995 80.3229 128.269C80.9632 127.544 81.2834 126.408 81.2834 124.861V115.629H85.1254V125.004C85.1254 127.46 84.4571 129.349 83.1204 130.673C81.7837 131.996 79.9147 132.658 77.5134 132.658C75.1121 132.658 73.2431 131.996 71.9064 130.673ZM99.6772 132.371L96.4355 127.707H96.2434H92.8576V132.371H88.9675V115.629H96.2434C97.7322 115.629 99.0249 115.876 100.121 116.371C101.218 116.865 102.062 117.567 102.655 118.475C103.247 119.384 103.543 120.46 103.543 121.704C103.543 122.948 103.243 124.02 102.643 124.921C102.042 125.822 101.19 126.511 100.085 126.99L103.855 132.371H99.6772ZM98.6927 119.54C98.0844 119.037 97.1959 118.786 96.0273 118.786H92.8576V124.622H96.0273C97.1959 124.622 98.0844 124.367 98.6927 123.857C99.301 123.346 99.6052 122.629 99.6052 121.704C99.6052 120.763 99.301 120.042 98.6927 119.54ZM117.687 128.783H109.883L108.394 132.371H104.408L111.9 115.629H115.742L123.258 132.371H119.176L117.687 128.783ZM116.462 125.842L113.797 119.432L111.131 125.842H116.462ZM140.307 132.371L140.283 122.326L135.336 130.601H133.583L128.661 122.541V132.371H125.011V115.629H128.228L134.52 126.033L140.715 115.629H143.909L143.957 132.371H140.307ZM147.943 115.629H151.833V132.371H147.943V115.629ZM157.488 132.12C156.247 131.761 155.251 131.294 154.498 130.721L155.819 127.803C156.54 128.329 157.396 128.751 158.388 129.07C159.381 129.389 160.374 129.549 161.366 129.549C162.471 129.549 163.287 129.385 163.815 129.058C164.344 128.731 164.608 128.297 164.608 127.755C164.608 127.356 164.452 127.025 164.14 126.762C163.827 126.499 163.427 126.288 162.939 126.129C162.451 125.969 161.79 125.794 160.958 125.602C159.677 125.299 158.629 124.997 157.812 124.694C156.996 124.391 156.295 123.904 155.711 123.235C155.127 122.565 154.835 121.672 154.835 120.556C154.835 119.583 155.099 118.703 155.627 117.913C156.155 117.124 156.952 116.498 158.016 116.036C159.081 115.573 160.382 115.342 161.918 115.342C162.991 115.342 164.04 115.47 165.064 115.725C166.089 115.98 166.985 116.347 167.753 116.825L166.553 119.767C165 118.89 163.447 118.451 161.894 118.451C160.806 118.451 160.001 118.627 159.481 118.978C158.961 119.328 158.701 119.791 158.701 120.365C158.701 120.939 159.001 121.365 159.601 121.644C160.201 121.923 161.118 122.198 162.351 122.469C163.631 122.772 164.68 123.075 165.496 123.378C166.313 123.681 167.013 124.159 167.597 124.813C168.182 125.467 168.474 126.352 168.474 127.468C168.474 128.425 168.206 129.297 167.669 130.087C167.133 130.876 166.329 131.502 165.256 131.964C164.184 132.427 162.879 132.658 161.342 132.658C160.013 132.658 158.729 132.478 157.488 132.12ZM174.381 118.786H169.002V115.629H183.65V118.786H178.271V132.371H174.381V118.786Z" fill="white"/>
</svg>
