<svg width="800" height="342" viewBox="0 0 343 342" fill="none" xmlns="http://www.w3.org/2000/svg">
<path d="M86.4391 156.08C85.2191 152.781 83.5337 149.771 81.4658 147.121C74.5486 155.555 71.912 167.194 75.4792 178.338C76.7096 182.194 78.5811 185.668 80.9281 188.679C79.6047 185.091 78.8809 181.215 78.8809 177.173C78.8809 169.173 81.7243 161.823 86.4391 156.08Z" fill="#A7C4E7"/>
<path d="M61.5621 176.318C58.6774 176.008 55.8443 176.225 53.187 176.885C53.8178 178.122 54.5519 179.297 55.3894 180.4C56.7542 180.06 58.1604 179.844 59.6079 179.74C67.9933 179.184 75.6653 183.009 80.3595 189.256C76.813 182.297 69.9268 177.215 61.5621 176.318Z" fill="#A7C4E7"/>
<path d="M94.0904 149.245C91.2057 151.121 88.6208 153.431 86.4495 156.08C86.6149 156.534 86.7803 156.998 86.9251 157.472C90.4819 168.627 87.8453 180.256 80.9385 188.689C90.089 182.751 96.148 172.452 96.148 160.75C96.1377 156.699 95.4139 152.833 94.0904 149.245Z" fill="#192559"/>
<g opacity="0.84">
<path d="M86.9251 157.462C86.7803 156.998 86.6149 156.534 86.4495 156.07C81.7243 161.812 78.8912 169.163 78.8912 177.173C78.8912 181.215 79.615 185.091 80.9385 188.679C87.8453 180.256 90.4819 168.617 86.9251 157.462Z" fill="black"/>
</g>
<path d="M71.9741 189.833C65.1086 189.091 59.2254 185.514 55.3894 180.4C54.0246 180.74 52.7114 181.194 51.45 181.751C56.1442 187.988 63.8161 191.823 72.2015 191.266C75.0966 191.071 77.8469 190.38 80.3595 189.256C77.6918 189.926 74.8691 190.143 71.9741 189.833Z" fill="#192559"/>
<g opacity="0.84">
<path d="M59.6079 179.751C58.1604 179.844 56.7542 180.07 55.3894 180.411C59.2357 185.524 65.1086 189.101 71.9844 189.833C74.8691 190.143 77.7022 189.926 80.3595 189.266C75.6653 183.019 67.9933 179.194 59.6079 179.751Z" fill="black"/>
</g>
<path d="M95.6724 181.204C93.2529 185.741 89.51 189.462 85.095 191.834C82.8926 193.019 80.5249 193.875 78.1054 194.37C75.686 194.864 73.2045 194.999 70.7747 194.772C73.2148 194.772 75.6446 194.411 77.94 193.72C80.2457 193.029 82.4274 191.998 84.4022 190.679C88.3623 188.06 91.4642 184.297 93.2529 180.04C93.5424 179.359 94.3282 179.029 95.0106 179.318C95.693 179.607 96.0239 180.39 95.7344 181.07C95.7137 181.112 95.7034 181.143 95.6827 181.184L95.6724 181.204Z" fill="#192559"/>
<path d="M125.466 177.596H114.716L112.665 182.543H107.174L117.494 159.456H122.787L133.14 182.543H127.517L125.466 177.596ZM123.779 173.54L120.107 164.7L116.436 173.54H123.779ZM137.622 180.202C135.781 178.377 134.86 175.771 134.86 172.385V159.456H140.219V172.187C140.219 176.321 141.939 178.388 145.379 178.388C147.055 178.388 148.334 177.888 149.216 176.887C150.098 175.887 150.539 174.32 150.539 172.187V159.456H155.832V172.385C155.832 175.771 154.911 178.377 153.07 180.202C151.228 182.027 148.654 182.939 145.346 182.939C142.038 182.939 139.463 182.027 137.622 180.202ZM175.877 182.543L171.411 176.112H171.147H166.483V182.543H161.124V159.456H171.147C173.197 159.456 174.978 159.797 176.489 160.479C177.999 161.16 179.162 162.128 179.978 163.381C180.794 164.635 181.202 166.119 181.202 167.834C181.202 169.549 180.789 171.027 179.962 172.27C179.135 173.512 177.961 174.463 176.439 175.123L181.632 182.543H175.877ZM174.521 164.849C173.683 164.156 172.459 163.81 170.849 163.81H166.483V171.857H170.849C172.459 171.857 173.683 171.506 174.521 170.802C175.358 170.098 175.777 169.109 175.777 167.834C175.777 166.536 175.358 165.542 174.521 164.849ZM200.685 177.596H189.935L187.884 182.543H182.393L192.713 159.456H198.006L208.359 182.543H202.736L200.685 177.596ZM198.998 173.54L195.326 164.7L191.655 173.54H198.998ZM231.844 182.543L231.811 168.691L224.997 180.103H222.583L215.802 168.988V182.543H210.774V159.456H215.206L223.873 173.803L232.407 159.456H236.806L236.872 182.543H231.844ZM242.363 159.456H247.722V182.543H242.363V159.456ZM255.512 182.197C253.803 181.702 252.43 181.059 251.393 180.268L253.213 176.244C254.205 176.97 255.385 177.552 256.752 177.992C258.119 178.432 259.487 178.652 260.854 178.652C262.375 178.652 263.5 178.426 264.228 177.976C264.955 177.525 265.319 176.926 265.319 176.178C265.319 175.628 265.104 175.172 264.674 174.809C264.244 174.447 263.693 174.155 263.02 173.935C262.348 173.715 261.438 173.474 260.291 173.21C258.527 172.792 257.083 172.374 255.958 171.956C254.834 171.539 253.869 170.868 253.064 169.945C252.259 169.021 251.857 167.79 251.857 166.251C251.857 164.909 252.22 163.695 252.948 162.606C253.676 161.518 254.773 160.655 256.239 160.017C257.706 159.379 259.498 159.061 261.615 159.061C263.092 159.061 264.536 159.237 265.948 159.588C267.359 159.94 268.594 160.446 269.652 161.106L267.999 165.162C265.86 163.953 263.721 163.348 261.581 163.348C260.082 163.348 258.974 163.59 258.257 164.074C257.54 164.558 257.182 165.195 257.182 165.987C257.182 166.778 257.596 167.366 258.423 167.751C259.249 168.136 260.512 168.515 262.21 168.889C263.974 169.307 265.419 169.725 266.543 170.142C267.668 170.56 268.633 171.22 269.437 172.121C270.242 173.023 270.645 174.243 270.645 175.782C270.645 177.102 270.275 178.305 269.537 179.394C268.798 180.482 267.69 181.345 266.212 181.983C264.735 182.62 262.938 182.939 260.821 182.939C258.99 182.939 257.221 182.692 255.512 182.197ZM278.782 163.81H271.373V159.456H291.55V163.81H284.141V182.543H278.782V163.81Z" fill="black"/>
</svg>
