<svg width="215" height="226" viewBox="0 0 215 226" fill="none" xmlns="http://www.w3.org/2000/svg">
<path d="M122.977 74.1793C121.483 69.9397 119.419 66.0712 116.887 62.6663C108.418 73.5036 105.19 88.4613 109.557 102.783C111.064 107.738 113.355 112.203 116.229 116.071C114.608 111.461 113.722 106.479 113.722 101.286C113.722 91.005 117.204 81.5588 122.977 74.1793Z" fill="#A7C4E7"/>
<path d="M92.5172 100.186C88.9851 99.7889 85.5163 100.067 82.2628 100.915C83.035 102.505 83.9338 104.015 84.9593 105.433C86.6304 104.996 88.3521 104.717 90.1245 104.585C100.392 103.869 109.785 108.785 115.533 116.813C111.19 107.871 102.759 101.339 92.5172 100.186Z" fill="#A7C4E7"/>
<path d="M132.345 65.3955C128.813 67.8068 125.648 70.7744 122.989 74.1793C123.192 74.7623 123.394 75.3585 123.572 75.9679C127.927 90.3029 124.698 105.247 116.242 116.085C127.445 108.453 134.864 95.2181 134.864 80.1809C134.851 74.9742 133.965 70.006 132.345 65.3955Z" fill="#192559"/>
<g opacity="0.84">
<path d="M123.572 75.9547C123.394 75.3585 123.192 74.7623 122.989 74.1661C117.204 81.5456 113.735 90.9919 113.735 101.286C113.735 106.479 114.621 111.461 116.242 116.071C124.698 105.247 127.927 90.2897 123.572 75.9547Z" fill="black"/>
</g>
<path d="M105.266 117.555C96.8595 116.601 89.6561 112.004 84.9593 105.433C83.2882 105.87 81.6804 106.453 80.1359 107.168C85.8835 115.184 95.277 120.112 105.544 119.397C109.089 119.145 112.456 118.257 115.533 116.813C112.266 117.674 108.81 117.953 105.266 117.555Z" fill="#192559"/>
<g opacity="0.84">
<path d="M90.1245 104.598C88.3521 104.717 86.6304 105.009 84.9593 105.446C89.6687 112.017 96.8595 116.615 105.278 117.555C108.81 117.953 112.279 117.675 115.533 116.827C109.785 108.798 100.392 103.883 90.1245 104.598Z" fill="black"/>
</g>
<path d="M134.282 106.466C131.319 112.296 126.737 117.078 121.331 120.125C118.634 121.649 115.735 122.749 112.773 123.385C109.81 124.021 106.772 124.193 103.797 123.901C106.785 123.901 109.76 123.438 112.57 122.55C115.393 121.662 118.065 120.337 120.483 118.642C125.331 115.277 129.129 110.441 131.319 104.969C131.674 104.095 132.636 103.671 133.472 104.042C134.307 104.413 134.712 105.42 134.358 106.294C134.332 106.347 134.32 106.387 134.294 106.44L134.282 106.466Z" fill="#192559"/>
<path d="M47.1812 158.756H38.4061L36.7321 162.995H32.25L40.6741 143.215H44.9942L53.4453 162.995H48.8552L47.1812 158.756ZM45.8042 155.281L42.8071 147.708L39.8101 155.281H45.8042ZM57.1038 160.988C55.6008 159.425 54.8493 157.193 54.8493 154.292V143.215H59.2234V154.122C59.2234 157.664 60.6274 159.434 63.4354 159.434C64.8034 159.434 65.8474 159.006 66.5675 158.149C67.2875 157.292 67.6475 155.949 67.6475 154.122V143.215H71.9675V154.292C71.9675 157.193 71.216 159.425 69.713 160.988C68.21 162.552 66.1084 163.334 63.4084 163.334C60.7084 163.334 58.6068 162.552 57.1038 160.988ZM88.3297 162.995L84.6847 157.485H84.4687H80.6616V162.995H76.2876V143.215H84.4687C86.1427 143.215 87.5962 143.507 88.8293 144.091C90.0623 144.675 91.0118 145.504 91.6778 146.578C92.3438 147.652 92.6768 148.923 92.6768 150.392C92.6768 151.862 92.3393 153.129 91.6643 154.193C90.9893 155.257 90.0308 156.072 88.7887 156.637L93.0278 162.995H88.3297ZM87.2227 147.835C86.5387 147.242 85.5397 146.945 84.2257 146.945H80.6616V153.84H84.2257C85.5397 153.84 86.5387 153.538 87.2227 152.935C87.9067 152.333 88.2487 151.485 88.2487 150.392C88.2487 149.281 87.9067 148.429 87.2227 147.835ZM108.58 158.756H99.8049L98.1309 162.995H93.6488L102.073 143.215H106.393L114.844 162.995H110.254L108.58 158.756ZM107.203 155.281L104.206 147.708L101.209 155.281H107.203ZM134.014 162.995L133.987 151.127L128.425 160.904H126.454L120.919 151.381V162.995H116.815V143.215H120.433L127.507 155.507L134.473 143.215H138.064L138.118 162.995H134.014ZM142.6 143.215H146.975V162.995H142.6V143.215ZM153.333 162.698C151.938 162.274 150.818 161.723 149.972 161.045L151.457 157.598C152.267 158.219 153.23 158.719 154.346 159.095C155.462 159.472 156.578 159.66 157.694 159.66C158.936 159.66 159.854 159.467 160.448 159.081C161.042 158.695 161.339 158.182 161.339 157.541C161.339 157.07 161.163 156.679 160.812 156.369C160.461 156.058 160.011 155.808 159.462 155.62C158.913 155.431 158.171 155.224 157.235 154.998C155.795 154.64 154.616 154.282 153.698 153.924C152.78 153.566 151.992 152.992 151.335 152.201C150.678 151.41 150.35 150.355 150.35 149.036C150.35 147.887 150.647 146.846 151.241 145.914C151.835 144.981 152.73 144.242 153.927 143.696C155.124 143.149 156.587 142.876 158.315 142.876C159.521 142.876 160.7 143.027 161.852 143.328C163.004 143.63 164.012 144.063 164.876 144.628L163.526 148.104C161.78 147.068 160.034 146.55 158.288 146.55C157.064 146.55 156.159 146.757 155.574 147.171C154.989 147.586 154.697 148.132 154.697 148.81C154.697 149.488 155.034 149.992 155.709 150.322C156.384 150.651 157.415 150.976 158.801 151.297C160.241 151.654 161.42 152.012 162.338 152.37C163.256 152.728 164.043 153.293 164.7 154.066C165.357 154.838 165.686 155.883 165.686 157.202C165.686 158.332 165.384 159.364 164.781 160.296C164.178 161.229 163.274 161.968 162.068 162.514C160.862 163.061 159.395 163.334 157.667 163.334C156.173 163.334 154.728 163.122 153.333 162.698ZM172.328 146.945H166.28V143.215H182.75V146.945H176.702V162.995H172.328V146.945Z" fill="black"/>
</svg>
