<svg width="140" height="77" viewBox="0 0 140 77" fill="none" xmlns="http://www.w3.org/2000/svg">
<path d="M79.832 6.56576C78.9313 4.14799 77.687 1.94177 76.1603 0C71.0534 6.18042 69.1068 14.7106 71.7404 22.8781C72.6488 25.7039 74.0305 28.2501 75.7633 30.4563C74.7862 27.827 74.2519 24.9861 74.2519 22.0244C74.2519 16.1613 76.3511 10.7742 79.832 6.56576Z" fill="#A7C4E7"/>
<path d="M61.4656 21.3972C59.3358 21.1706 57.2442 21.3292 55.2824 21.8128C55.7481 22.7194 56.29 23.5808 56.9084 24.3892C57.916 24.1399 58.9542 23.9812 60.0229 23.9056C66.2137 23.4977 71.8778 26.3008 75.3435 30.8794C72.7252 25.7794 67.6412 22.0545 61.4656 21.3972Z" fill="#A7C4E7"/>
<path d="M85.4809 1.5564C83.3512 2.9315 81.4428 4.62394 79.8397 6.56572C79.9618 6.89816 80.084 7.23816 80.1908 7.58571C82.8168 15.7608 80.8702 24.2834 75.771 30.4639C82.5267 26.1119 87 18.5639 87 9.98837C86.9924 7.01905 86.458 4.18572 85.4809 1.5564Z" fill="#192559"/>
<g opacity="0.84">
<path d="M80.1908 7.57819C80.084 7.23819 79.9618 6.8982 79.8397 6.5582C76.3511 10.7666 74.2595 16.1537 74.2595 22.0244C74.2595 24.9861 74.7939 27.827 75.771 30.4563C80.8702 24.2835 82.8168 15.7533 80.1908 7.57819Z" fill="black"/>
</g>
<path d="M69.1527 31.3026C64.084 30.7586 59.7405 28.1368 56.9084 24.3893C55.9008 24.6386 54.9313 24.971 54 25.379C57.4656 29.9501 63.1298 32.7608 69.3206 32.3528C71.458 32.2092 73.4886 31.703 75.3435 30.8795C73.3741 31.3706 71.2901 31.5292 69.1527 31.3026Z" fill="#192559"/>
<g opacity="0.84">
<path d="M60.0229 23.9133C58.9542 23.9813 57.916 24.1475 56.9084 24.3968C59.7481 28.1444 64.084 30.7661 69.1603 31.3026C71.2901 31.5293 73.3817 31.3706 75.3435 30.887C71.8779 26.3084 66.2137 23.5053 60.0229 23.9133Z" fill="black"/>
</g>
<path d="M86.6488 24.9785C84.8625 28.303 82.0992 31.0305 78.8396 32.7683C77.2137 33.6372 75.4656 34.2643 73.6793 34.627C71.893 34.9896 70.061 35.0878 68.2671 34.9216C70.0686 34.9216 71.8625 34.6572 73.5572 34.151C75.2595 33.6447 76.8701 32.8892 78.3282 31.9221C81.2518 30.003 83.5419 27.2452 84.8625 24.1248C85.0763 23.6261 85.6564 23.3843 86.1602 23.5959C86.664 23.8074 86.9083 24.3817 86.6946 24.8803C86.6793 24.9105 86.6717 24.9332 86.6564 24.9634L86.6488 24.9785Z" fill="#192559"/>
<path d="M13.8895 66.9724H5.72659L4.16936 70.7017H0L7.83638 53.2983H11.855L19.7165 70.7017H15.4467L13.8895 66.9724ZM12.6085 63.9144L9.8206 57.2514L7.03265 63.9144H12.6085ZM23.1198 68.9365C21.7217 67.5608 21.0226 65.5967 21.0226 63.0442V53.2983H25.0915V62.895C25.0915 66.0111 26.3976 67.5691 29.0097 67.5691C30.2823 67.5691 31.2534 67.192 31.9232 66.4378C32.593 65.6837 32.9279 64.5028 32.9279 62.895V53.2983H36.9465V63.0442C36.9465 65.5967 36.2475 67.5608 34.8493 68.9365C33.4511 70.3122 31.4962 71 28.9846 71C26.4729 71 24.518 70.3122 23.1198 68.9365ZM52.1672 70.7017L48.7765 65.8536H48.5755H45.0341V70.7017H40.9652V53.2983H48.5755C50.1328 53.2983 51.4849 53.5552 52.6319 54.0691C53.7789 54.5829 54.6621 55.3122 55.2817 56.2569C55.9012 57.2017 56.211 58.3204 56.211 59.6133C56.211 60.9061 55.897 62.0207 55.2691 62.9572C54.6412 63.8936 53.7496 64.6105 52.5942 65.1077L56.5375 70.7017H52.1672ZM51.1374 57.3633C50.5011 56.8412 49.5718 56.5801 48.3495 56.5801H45.0341V62.6464H48.3495C49.5718 62.6464 50.5011 62.3812 51.1374 61.8508C51.7737 61.3204 52.0919 60.5746 52.0919 59.6133C52.0919 58.6354 51.7737 57.8854 51.1374 57.3633ZM71.0047 66.9724H62.8418L61.2845 70.7017H57.1152L64.9516 53.2983H68.9702L76.8317 70.7017H72.5619L71.0047 66.9724ZM69.7237 63.9144L66.9358 57.2514L64.1478 63.9144H69.7237ZM94.6645 70.7017L94.6394 60.2597L89.4654 68.8619H87.6319L82.483 60.4834V70.7017H78.6652V53.2983H82.0309L88.6114 64.1133L95.0915 53.2983H98.432L98.4822 70.7017H94.6645ZM102.652 53.2983H106.72V70.7017H102.652V53.2983ZM112.635 70.4406C111.338 70.0677 110.295 69.5829 109.508 68.9862L110.89 65.953C111.643 66.5 112.539 66.9392 113.577 67.2707C114.615 67.6022 115.654 67.768 116.692 67.768C117.847 67.768 118.701 67.5981 119.254 67.2583C119.806 66.9185 120.083 66.4669 120.083 65.9033C120.083 65.489 119.919 65.145 119.593 64.8715C119.266 64.5981 118.848 64.3785 118.337 64.2127C117.826 64.047 117.136 63.8646 116.265 63.6657C114.925 63.3508 113.828 63.0359 112.975 62.721C112.121 62.4061 111.388 61.9005 110.777 61.2044C110.166 60.5083 109.86 59.5801 109.86 58.4199C109.86 57.4088 110.136 56.4931 110.689 55.6727C111.241 54.8522 112.075 54.2017 113.188 53.721C114.302 53.2403 115.662 53 117.269 53C118.391 53 119.488 53.1326 120.56 53.3978C121.631 53.663 122.569 54.0442 123.373 54.5414L122.117 57.5995C120.493 56.6878 118.869 56.232 117.244 56.232C116.106 56.232 115.264 56.4144 114.72 56.779C114.176 57.1436 113.904 57.6243 113.904 58.221C113.904 58.8177 114.218 59.261 114.846 59.5511C115.474 59.8412 116.432 60.1271 117.722 60.4088C119.061 60.7238 120.158 61.0387 121.012 61.3536C121.866 61.6685 122.598 62.1657 123.21 62.8453C123.821 63.5249 124.126 64.4448 124.126 65.605C124.126 66.5994 123.846 67.5069 123.285 68.3273C122.724 69.1478 121.883 69.7983 120.761 70.279C119.639 70.7597 118.274 71 116.667 71C115.277 71 113.933 70.8135 112.635 70.4406ZM130.305 56.5801H124.679V53.2983H140V56.5801H134.374V70.7017H130.305V56.5801Z" fill="black"/>
</svg>
