<svg width="1440" height="834" viewBox="0 0 1440 834" fill="none" xmlns="http://www.w3.org/2000/svg">
<g clip-path="url(#clip0_165_341)">
<rect width="1440" height="834" fill="white"/>
<path d="M1132.54 810.065C1092.1 861.382 1030.03 896.338 952.552 914.648C919.864 922.375 885.773 927.548 856.375 942.767C826.977 957.986 802.685 986.559 806.371 1017.01C810.902 1054.4 854.343 1077.74 895.195 1083.68C981.123 1096.18 1077.88 1083.58 1137.39 1018.84C1183.73 968.434 1200.95 897.716 1252.5 851.942C1302.42 807.629 1378.11 792.78 1421.43 742.773C1444.25 716.418 1455.5 682.822 1461.08 649.328C1468.97 601.891 1465.95 551.548 1442.81 508.681C1419.67 465.83 1374 431.932 1322.7 429.227C1188.2 422.156 1189.19 581.734 1184.43 666.176C1181.23 723.355 1163.03 771.363 1132.54 810.065Z" fill="#A7C4E7"/>
<path d="M232.741 639.093C215.099 696.24 172.914 747.757 111.524 791.141C85.624 809.446 57.6179 826.153 37.1763 849.449C16.7346 872.744 5.36008 905.211 19.0823 929.029C35.9351 958.27 81.9409 961.706 119.689 951.72C199.087 930.709 279.29 885.015 308.974 809.822C332.081 751.273 322.749 686.562 352.012 629.942C380.349 575.127 441.376 535.252 461.984 478.138C472.834 448.041 471.086 416.179 464.407 386.472C454.948 344.4 434.949 303.907 399.946 276.927C364.948 249.962 313.351 238.61 267.592 255.084C147.627 298.289 203.516 429.777 228.47 501.283C245.39 549.694 246.043 595.995 232.741 639.093Z" fill="#A7C4E7"/>
<path d="M1295.36 85.6718C1297.86 43.4658 1265.67 7.18009 1223.47 4.62549C1181.26 2.0709 1145.03 34.2148 1142.53 76.4208C1140.03 118.627 1172.21 154.913 1214.41 157.467C1256.62 160.022 1292.86 127.878 1295.36 85.6718Z" fill="#A7C4E7"/>
<path d="M81.0779 462.115C109.011 427.683 124.483 384.905 139.147 342.932C153.811 300.958 168.574 258.046 195.478 222.776C222.371 187.506 264.116 160.581 308.107 163.553C394.275 169.385 397.01 206.072 477.5 231.5C503.408 239.689 521.026 239.367 542.629 222.776C572.853 199.572 601.588 180.231 584.5 146C584.5 146 575.985 119.088 542.629 100.777C517.009 86.7112 490.238 74.7906 462.681 65.1602C427.952 53.0385 390.313 43.5869 364.295 17.3884C331.315 -15.8262 338.077 -41.8236 356.183 -66H-11V500H39.6096C55.1366 489.465 69.2029 476.751 81.0779 462.115Z" fill="#A7C4E7"/>
<path d="M1000.52 523.759C1047.77 478.516 1115.07 451.059 1196.09 441.081C1230.29 436.858 1265.58 435.254 1297.29 423.531C1329.02 411.807 1357.13 386.803 1357 357.246C1356.81 320.967 1315.4 294.335 1274.53 284.64C1188.58 264.259 1088.62 266.878 1020.38 323.137C967.238 366.941 941.322 433.061 883.433 471.888C827.393 509.488 748.572 516.329 698.562 560.039C672.217 583.062 656.78 614.175 647.105 645.737C633.437 690.438 630.542 739.007 648.981 782.34C667.42 825.696 709.872 862.636 761.758 870.231C897.771 890.14 915.728 737.073 930.602 656.588C940.679 602.145 964.907 557.892 1000.52 523.759Z" fill="#A7C4E7"/>
<path d="M1107.72 203.878C1160.62 209.133 1211.04 183.955 1261.41 166.912C1278.72 161.052 1297.08 156.062 1315.09 159.154C1343.89 164.099 1365.48 188.643 1379.02 214.585C1392.57 240.527 1400.61 269.252 1416.05 294.105C1422.33 304.229 1430.46 313.893 1440 321V0H989.179C978.691 42.8187 978.269 88.4727 997.561 127.549C1018.23 169.399 1061.34 199.273 1107.72 203.878Z" fill="#A7C4E7"/>
<path d="M829.356 13.6718C831.856 -28.5342 799.67 -64.8199 757.468 -67.3745C715.265 -69.9291 679.026 -37.7852 676.526 4.42081C674.027 46.6269 706.212 82.9125 748.415 85.4671C790.618 88.0217 826.856 55.8778 829.356 13.6718Z" fill="#A7C4E7"/>
</g>
<defs>
<clipPath id="clip0_165_341">
<rect width="1440" height="834" fill="white"/>
</clipPath>
</defs>
</svg>
