<svg width="1440" height="834" viewBox="0 0 1440 834" fill="none" xmlns="http://www.w3.org/2000/svg">
<g clip-path="url(#clip0_162_286)">
<rect width="1440" height="834" fill="white"/>
<path d="M196.446 121.874C161.592 171.011 108.094 204.482 41.3153 222.013C13.1406 229.412 -16.2428 234.366 -41.5814 248.938C-66.92 263.51 -87.8572 290.869 -84.6802 320.029C-80.7748 355.832 -43.3326 378.173 -8.12201 383.866C65.941 395.833 149.334 383.77 200.631 321.782C240.568 273.514 255.415 205.8 299.846 161.972C342.868 119.542 408.112 105.324 445.446 57.4417C465.113 32.2058 474.814 0.0378723 479.618 -32.0336C486.422 -77.4548 483.818 -125.659 463.873 -166.705C443.927 -207.735 404.564 -240.193 360.349 -242.782C244.427 -249.554 245.279 -96.7556 241.172 -15.9014C238.414 38.8486 222.73 84.8166 196.446 121.874Z" fill="#A7C4E7"/>
<path d="M634.805 173.834C673.096 127.89 731.868 96.5941 805.231 80.2017C836.184 73.2838 868.464 68.6518 896.301 55.0265C924.137 41.4013 947.139 15.82 943.649 -11.4455C939.358 -44.9222 898.225 -65.8112 859.542 -71.135C778.177 -82.324 686.563 -71.0447 630.209 -13.0848C586.334 32.047 570.023 95.3609 521.211 136.342C473.948 176.015 402.271 189.309 361.256 234.08C339.651 257.676 328.993 287.754 323.715 317.741C316.241 360.211 319.101 405.283 341.013 443.662C362.925 482.027 406.17 512.375 454.743 514.796C582.094 521.128 581.158 378.258 585.67 302.657C588.7 251.465 605.93 208.484 634.805 173.834Z" fill="#A7C4E7"/>
<path d="M307.276 645.122C254.379 639.867 203.957 665.045 153.587 682.088C136.279 687.948 117.915 692.938 99.9054 689.846C71.1066 684.901 49.5208 660.357 35.9777 634.415C22.4346 608.473 14.3918 579.748 -1.04502 554.895C-7.3299 544.771 -15.4557 535.107 -25 528V849H425.821C436.309 806.181 436.731 760.527 417.439 721.451C396.766 679.601 353.662 649.727 307.276 645.122Z" fill="#A7C4E7"/>
<path d="M1140.66 145.99C1112.03 122.398 1094.66 88.797 1088.35 48.3441C1085.68 31.269 1084.66 13.6453 1077.24 -2.1853C1069.83 -18.0293 1054.01 -32.0667 1035.3 -31.9998C1012.35 -31.9061 995.499 -11.2313 989.365 9.17578C976.47 52.0909 978.126 102.005 1013.72 136.075C1041.44 162.611 1083.27 175.551 1107.84 204.455C1131.63 232.436 1135.96 271.792 1163.62 296.762C1178.18 309.916 1197.87 317.624 1217.84 322.455C1246.12 329.28 1276.85 330.725 1304.27 321.518C1331.7 312.312 1355.08 291.115 1359.88 265.208C1372.48 197.296 1275.63 188.33 1224.7 180.903C1190.26 175.872 1162.26 163.775 1140.66 145.99Z" fill="#A7C4E7"/>
<path d="M1404.56 241.257C1371.67 281.481 1353.44 331.454 1336.17 380.487C1318.9 429.521 1301.51 479.65 1269.83 520.853C1238.16 562.056 1188.99 593.509 1137.18 590.038C1035.69 583.225 969.114 471.115 874.316 441.41C843.802 431.844 808.114 433.071 782.671 452.452C747.075 479.559 742.917 534.661 763.042 574.65C783.167 614.639 821.683 641.981 860.968 663.372C891.143 679.804 922.673 693.73 955.128 704.98C996.03 719.14 1040.36 730.182 1071 760.787C1109.85 799.588 1101.88 829.958 1080.56 858.201H1513.01V197H1453.4C1435.12 209.307 1418.55 224.16 1404.56 241.257Z" fill="#A7C4E7"/>
<path d="M199.356 568.672C201.856 526.466 169.67 490.18 127.468 487.625C85.2648 485.071 49.0262 517.215 46.5263 559.421C44.0265 601.627 76.2121 637.913 118.415 640.467C160.618 643.022 196.856 610.878 199.356 568.672Z" fill="#A7C4E7"/>
<path d="M1505.15 19.2791C1508.01 -29.0668 1466.91 -70.8873 1413.35 -74.1295C1359.79 -77.3717 1314.05 -40.8079 1311.18 7.53806C1308.32 55.884 1349.42 97.7044 1402.98 100.947C1456.55 104.189 1502.29 67.625 1505.15 19.2791Z" fill="#A7C4E7"/>
<path d="M672 749C616.768 749 572 793.768 572 849C572 904.232 616.768 949 672 949C727.232 949 772 904.232 772 849C772 793.768 727.232 749 672 749ZM672 909.733C638.456 909.733 611.267 882.544 611.267 849C611.267 815.456 638.456 788.267 672 788.267C705.544 788.267 732.734 815.456 732.734 849C732.734 882.544 705.544 909.733 672 909.733Z" fill="#A7C4E7"/>
</g>
<defs>
<clipPath id="clip0_162_286">
<rect width="1440" height="834" fill="white"/>
</clipPath>
</defs>
</svg>
